<svg viewBox="0 0 330 200" xmlns="http://www.w3.org/2000/svg"><g><g><g><g><g><line x1="40" y1="178" x2="35" y2="178" style="visibility: inherit;" fill="rgb(0, 0, 0)" stroke="rgb(204, 204, 204)" stroke-width="1px"></line><line x1="40" y1="161.8181818181818" x2="35" y2="161.8181818181818" style="visibility: inherit;" fill="rgb(0, 0, 0)" stroke="rgb(204, 204, 204)" stroke-width="1px"></line><line x1="40" y1="145.63636363636363" x2="35" y2="145.63636363636363" style="visibility: inherit;" fill="rgb(0, 0, 0)" stroke="rgb(204, 204, 204)" stroke-width="1px"></line><line x1="40" y1="129.45454545454547" x2="35" y2="129.45454545454547" style="visibility: inherit;" fill="rgb(0, 0, 0)" stroke="rgb(204, 204, 204)" stroke-width="1px"></line><line x1="40" y1="113.27272727272727" x2="35" y2="113.27272727272727" style="visibility: inherit;" fill="rgb(0, 0, 0)" stroke="rgb(204, 204, 204)" stroke-width="1px"></line><line x1="40" y1="97.0909090909091" x2="35" y2="97.0909090909091" style="visibility: inherit;" fill="rgb(0, 0, 0)" stroke="rgb(204, 204, 204)" stroke-width="1px"></line><line x1="40" y1="80.90909090909092" x2="35" y2="80.90909090909092" style="visibility: inherit;" fill="rgb(0, 0, 0)" stroke="rgb(204, 204, 204)" stroke-width="1px"></line><line x1="40" y1="64.72727272727275" x2="35" y2="64.72727272727275" style="visibility: inherit;" fill="rgb(0, 0, 0)" stroke="rgb(204, 204, 204)" stroke-width="1px"></line><line x1="40" y1="48.54545454545453" x2="35" y2="48.54545454545453" style="visibility: inherit;" fill="rgb(0, 0, 0)" stroke="rgb(204, 204, 204)" stroke-width="1px"></line><line x1="40" y1="32.363636363636374" x2="35" y2="32.363636363636374" style="visibility: inherit;" fill="rgb(0, 0, 0)" stroke="rgb(204, 204, 204)" stroke-width="1px"></line><line x1="40" y1="16.181818181818187" x2="35" y2="16.181818181818187" style="visibility: inherit;" fill="rgb(0, 0, 0)" stroke="rgb(204, 204, 204)" stroke-width="1px"></line><line x1="40" y1="0" x2="35" y2="0" style="visibility: inherit;" fill="rgb(0, 0, 0)" stroke="rgb(204, 204, 204)" stroke-width="1px"></line></g><g transform="translate(30, 0)"><text x="0" y="178" dx="0em" dy="0.3em" style="text-anchor: end; visibility: hidden; font-family: &quot;Helvetica Neue&quot;, sans-serif; font-size: 12px; font-weight: 200;" fill="rgb(50, 49, 63)" stroke="none" stroke-width="1px">0</text><text x="0" y="161.8181818181818" dx="0em" dy="0.3em" style="text-anchor: end; visibility: inherit; font-family: &quot;Helvetica Neue&quot;, sans-serif; font-size: 12px; font-weight: 200;" fill="rgb(50, 49, 63)" stroke="none" stroke-width="1px">0.1</text><text x="0" y="145.63636363636363" dx="0em" dy="0.3em" style="text-anchor: end; visibility: hidden; font-family: &quot;Helvetica Neue&quot;, sans-serif; font-size: 12px; font-weight: 200;" fill="rgb(50, 49, 63)" stroke="none" stroke-width="1px">0.2</text><text x="0" y="129.45454545454547" dx="0em" dy="0.3em" style="text-anchor: end; visibility: inherit; font-family: &quot;Helvetica Neue&quot;, sans-serif; font-size: 12px; font-weight: 200;" fill="rgb(50, 49, 63)" stroke="none" stroke-width="1px">0.3</text><text x="0" y="113.27272727272727" dx="0em" dy="0.3em" style="text-anchor: end; visibility: hidden; font-family: &quot;Helvetica Neue&quot;, sans-serif; font-size: 12px; font-weight: 200;" fill="rgb(50, 49, 63)" stroke="none" stroke-width="1px">0.4</text><text x="0" y="97.0909090909091" dx="0em" dy="0.3em" style="text-anchor: end; visibility: inherit; font-family: &quot;Helvetica Neue&quot;, sans-serif; font-size: 12px; font-weight: 200;" fill="rgb(50, 49, 63)" stroke="none" stroke-width="1px">0.5</text><text x="0" y="80.90909090909092" dx="0em" dy="0.3em" style="text-anchor: end; visibility: hidden; font-family: &quot;Helvetica Neue&quot;, sans-serif; font-size: 12px; font-weight: 200;" fill="rgb(50, 49, 63)" stroke="none" stroke-width="1px">0.6</text><text x="0" y="64.72727272727275" dx="0em" dy="0.3em" style="text-anchor: end; visibility: inherit; font-family: &quot;Helvetica Neue&quot;, sans-serif; font-size: 12px; font-weight: 200;" fill="rgb(50, 49, 63)" stroke="none" stroke-width="1px">0.7</text><text x="0" y="48.54545454545453" dx="0em" dy="0.3em" style="text-anchor: end; visibility: hidden; font-family: &quot;Helvetica Neue&quot;, sans-serif; font-size: 12px; font-weight: 200;" fill="rgb(50, 49, 63)" stroke="none" stroke-width="1px">0.8</text><text x="0" y="32.363636363636374" dx="0em" dy="0.3em" style="text-anchor: end; visibility: inherit; font-family: &quot;Helvetica Neue&quot;, sans-serif; font-size: 12px; font-weight: 200;" fill="rgb(50, 49, 63)" stroke="none" stroke-width="1px">0.9</text><text x="0" y="16.181818181818187" dx="0em" dy="0.3em" style="text-anchor: end; visibility: hidden; font-family: &quot;Helvetica Neue&quot;, sans-serif; font-size: 12px; font-weight: 200;" fill="rgb(50, 49, 63)" stroke="none" stroke-width="1px">1</text><text x="0" y="0" dx="0em" dy="0.3em" style="text-anchor: end; visibility: hidden; font-family: &quot;Helvetica Neue&quot;, sans-serif; font-size: 12px; font-weight: 200;" fill="rgb(50, 49, 63)" stroke="none" stroke-width="1px">1.1</text></g><line x1="40" y1="0" x2="40" y2="178" fill="rgb(0, 0, 0)" stroke="rgb(204, 204, 204)" stroke-width="1px"></line></g></g><g transform="translate(40, 0)" clip-path="url(#clip_0)"><clipPath id="clip_0"><rect width="290" height="178"></rect></clipPath><g><g><g><line x1="0" y1="0" x2="0" y2="178" fill="rgb(0, 0, 0)" stroke="rgb(60, 60, 60)" stroke-width="1px" opacity="0.25"></line><line x1="24.166666666666664" y1="0" x2="24.166666666666664" y2="178" fill="rgb(0, 0, 0)" stroke="rgb(60, 60, 60)" stroke-width="1px" opacity="0.25"></line><line x1="48.33333333333333" y1="0" x2="48.33333333333333" y2="178" fill="rgb(0, 0, 0)" stroke="rgb(60, 60, 60)" stroke-width="1px" opacity="0.25"></line><line x1="72.5" y1="0" x2="72.5" y2="178" fill="rgb(0, 0, 0)" stroke="rgb(60, 60, 60)" stroke-width="1px" opacity="0.25"></line><line x1="96.66666666666666" y1="0" x2="96.66666666666666" y2="178" fill="rgb(0, 0, 0)" stroke="rgb(60, 60, 60)" stroke-width="1px" opacity="0.25"></line><line x1="120.83333333333334" y1="0" x2="120.83333333333334" y2="178" fill="rgb(0, 0, 0)" stroke="rgb(60, 60, 60)" stroke-width="1px" opacity="0.25"></line><line x1="145" y1="0" x2="145" y2="178" fill="rgb(0, 0, 0)" stroke="rgb(60, 60, 60)" stroke-width="1px" opacity="0.25"></line><line x1="169.16666666666669" y1="0" x2="169.16666666666669" y2="178" fill="rgb(0, 0, 0)" stroke="rgb(60, 60, 60)" stroke-width="1px" opacity="0.25"></line><line x1="193.33333333333331" y1="0" x2="193.33333333333331" y2="178" fill="rgb(0, 0, 0)" stroke="rgb(60, 60, 60)" stroke-width="1px" opacity="0.25"></line><line x1="217.5" y1="0" x2="217.5" y2="178" fill="rgb(0, 0, 0)" stroke="rgb(60, 60, 60)" stroke-width="1px" opacity="0.25"></line><line x1="241.66666666666669" y1="0" x2="241.66666666666669" y2="178" fill="rgb(0, 0, 0)" stroke="rgb(60, 60, 60)" stroke-width="1px" opacity="0.25"></line><line x1="265.8333333333333" y1="0" x2="265.8333333333333" y2="178" fill="rgb(0, 0, 0)" stroke="rgb(60, 60, 60)" stroke-width="1px" opacity="0.25"></line><line x1="290" y1="0" x2="290" y2="178" fill="rgb(0, 0, 0)" stroke="rgb(60, 60, 60)" stroke-width="1px" opacity="0.25"></line></g><g><line x1="0" y1="178" x2="290" y2="178" fill="rgb(0, 0, 0)" stroke="rgb(60, 60, 60)" stroke-width="1px" opacity="0.25"></line><line x1="0" y1="161.8181818181818" x2="290" y2="161.8181818181818" fill="rgb(0, 0, 0)" stroke="rgb(60, 60, 60)" stroke-width="1px" opacity="0.25"></line><line x1="0" y1="145.63636363636363" x2="290" y2="145.63636363636363" fill="rgb(0, 0, 0)" stroke="rgb(60, 60, 60)" stroke-width="1px" opacity="0.25"></line><line x1="0" y1="129.45454545454547" x2="290" y2="129.45454545454547" fill="rgb(0, 0, 0)" stroke="rgb(60, 60, 60)" stroke-width="1px" opacity="0.25"></line><line x1="0" y1="113.27272727272727" x2="290" y2="113.27272727272727" fill="rgb(0, 0, 0)" stroke="rgb(60, 60, 60)" stroke-width="1px" opacity="0.25"></line><line x1="0" y1="97.0909090909091" x2="290" y2="97.0909090909091" fill="rgb(0, 0, 0)" stroke="rgb(60, 60, 60)" stroke-width="1px" opacity="0.25"></line><line x1="0" y1="80.90909090909092" x2="290" y2="80.90909090909092" fill="rgb(0, 0, 0)" stroke="rgb(60, 60, 60)" stroke-width="1px" opacity="0.25"></line><line x1="0" y1="64.72727272727275" x2="290" y2="64.72727272727275" fill="rgb(0, 0, 0)" stroke="rgb(60, 60, 60)" stroke-width="1px" opacity="0.25"></line><line x1="0" y1="48.54545454545453" x2="290" y2="48.54545454545453" fill="rgb(0, 0, 0)" stroke="rgb(60, 60, 60)" stroke-width="1px" opacity="0.25"></line><line x1="0" y1="32.363636363636374" x2="290" y2="32.363636363636374" fill="rgb(0, 0, 0)" stroke="rgb(60, 60, 60)" stroke-width="1px" opacity="0.25"></line><line x1="0" y1="16.181818181818187" x2="290" y2="16.181818181818187" fill="rgb(0, 0, 0)" stroke="rgb(60, 60, 60)" stroke-width="1px" opacity="0.25"></line><line x1="0" y1="0" x2="290" y2="0" fill="rgb(0, 0, 0)" stroke="rgb(60, 60, 60)" stroke-width="1px" opacity="0.25"></line></g></g></g><g><g><line x1="0" y1="178" x2="290" y2="178" fill="rgb(0, 0, 0)" stroke="rgb(153, 153, 153)" stroke-width="1.5px"></line></g></g><g><g><line x1="24.166666666666664" y1="0" x2="24.166666666666664" y2="178" fill="rgb(0, 0, 0)" stroke="rgb(153, 153, 153)" stroke-width="1.5px"></line></g></g><g><g><g><g><g><path stroke="rgb(0, 119, 187)" stroke-width="2px" d="M24.166666666666664,153.95381864092568L25.375,141.75677318396893L26.583333333333332,141.32539494327358L27.791666666666668,134.910732659327L29,111.37649019020122L30.208333333333336,99.97816825155073L31.416666666666668,90.70580699248151L32.625,83.65894267224476L33.833333333333336,78.0557725945899L35.041666666666664,71.95607090223155L36.25,72.34764632932875L37.458333333333336,68.96201802788727L38.666666666666664,66.80574169759022L39.875,65.37774256818983L41.083333333333336,62.92214481598822L42.29166666666667,60.950986837379816L43.5,56.84247674634791L44.708333333333336,58.64377813436464L45.916666666666664,60.54005551742752L47.125,59.852370199008135L48.33333333333333,56.99950355247594L49.541666666666664,63.72837120752071L50.75,60.03713999743063L51.958333333333336,59.08460497992385L53.166666666666664,65.81434411517574L54.375,61.502346259537845L55.583333333333336,61.08998907778643L56.791666666666664,61.269776745638225L58,58.607320383447274L59.208333333333336,54.91915611898223L60.41666666666667,55.89731016195637L61.625,58.85969426952164L62.833333333333336,63.72461871378643L64.04166666666667,60.61746323353087L65.25,54.92778605666997L66.45833333333333,53.539944007451865L67.66666666666667,55.16687436346707L68.875,58.033070070922676L70.08333333333333,55.29307909144737L71.29166666666666,55.493809251983976L72.5,58.16450455614283L73.70833333333333,56.0451032450143L74.91666666666667,57.23957182221754L76.125,61.88519838033476L77.33333333333333,62.46537456754841L78.54166666666666,56.89740578675439L79.75,54.656989420344146L80.95833333333333,61.843793880764196L82.16666666666667,61.31427561857089L83.375,58.278019484471386L84.58333333333334,56.35917421591989L85.79166666666667,56.91666897456366L87,56.84985573266064L88.20833333333333,53.974713476630654L89.41666666666667,56.55399228407515L90.625,54.61275934631607L91.83333333333333,57.720018596002234L93.04166666666667,55.3835753742148L94.25,52.272907521378656L95.45833333333333,46.81414505603982L96.66666666666666,43.37059574798758L97.875,40.30119284946056L99.08333333333333,38.62784293919347L100.29166666666667,38.944268560368926L101.5,38.27972490221532L102.70833333333334,39.033142445809744L103.91666666666667,37.97704802976946L105.125,40.340263718526955L106.33333333333333,38.897247473531166L107.54166666666667,38.54278315638763L108.75,40.09715912390183L109.95833333333333,39.76760563315736L111.16666666666667,39.08441945622167L112.375,38.84279572086325L113.58333333333333,40.30305800995217L114.79166666666666,40.41543413930091L116,39.57667809132147L117.20833333333333,39.416478063538676L118.41666666666667,38.465959016010146L119.625,38.98306488659031L120.83333333333334,39.28685846563175L122.04166666666667,40.78309637903948L123.25,40.68403961474115L124.45833333333333,41.16184233338106L125.66666666666667,39.92096147635587L126.875,39.15054161477582L128.08333333333334,39.07017839085702L129.29166666666669,38.43941478590969L130.5,38.015647729564165L131.70833333333334,40.73237234481971L132.91666666666666,39.048368663905336L134.125,40.54291090989659L135.33333333333334,39.64022040901946L136.54166666666666,39.499912347534604L137.75,39.68111092759983L138.95833333333334,38.41113801222062L140.16666666666666,38.289956429671804L141.375,37.97775541055134L142.58333333333331,37.64803431759489L143.79166666666666,37.191292046217654L145,37.77164957229627L146.20833333333334,37.32371769512113L147.41666666666666,38.34950278878679L148.625,39.24977480795445L149.83333333333334,38.74135581238221L151.04166666666669,38.33273902557909L152.25,38.88371534631946L153.45833333333334,40.91662925717466L154.66666666666666,40.9907038085079L155.875,41.274640608899034L157.08333333333331,39.63911303930905L158.29166666666666,38.58012245546021L159.5,38.909162468776174L160.70833333333334,42.01284102839318L161.91666666666666,39.92668520681585L163.125,38.875648691436226L164.33333333333334,39.51367965481427L165.54166666666666,38.724936948342304L166.75,39.86987159942254L167.95833333333334,36.601995631370414L169.16666666666669,34.31116019419366L170.375,32.923715187228225L171.58333333333334,31.903538808187676L172.79166666666666,31.21375893866849L174,31.019965540535964L175.20833333333331,30.70950632544242L176.41666666666666,30.464978158349737L177.625,30.39593144214288L178.83333333333334,30.483960149243472L180.04166666666666,30.575612465528195L181.25,31.12900554049358L182.45833333333334,31.176240422504463L183.66666666666666,31.457017165961645L184.875,31.15297287420634L186.08333333333334,31.015855192530267L187.29166666666669,30.959475930889596L188.5,31.488776498489045L189.70833333333334,31.32090275655969L190.91666666666666,31.712106395243865L192.125,31.662027615486068L193.33333333333331,31.33423564000364L194.54166666666666,31.13756045471422L195.75,31.129590676306975L196.95833333333334,31.778554720600766L198.16666666666666,31.68895286604078L199.375,31.861736220190437L200.58333333333334,31.777696857818967L201.79166666666666,31.973235253293893L203,32.25885011942796L204.20833333333334,32.1583656788456L205.41666666666669,32.86833005995351L206.625,32.49816229579599L207.83333333333334,32.41846211878564L209.04166666666666,33.01144032121201L210.25,33.34780969665567L211.45833333333331,32.77937627646452L212.66666666666666,33.7069729550017L213.875,32.52883769499533L215.08333333333334,32.55984643573112L216.29166666666666,31.581652167829617L217.5,30.975318061076536L218.70833333333334,30.57915630635307L219.91666666666666,30.21200251669427L221.125,29.939927548169095L222.33333333333334,29.886721757866525L223.54166666666669,29.803015588955105L224.75,29.78515317827984L225.95833333333334,29.567308811001226L227.16666666666666,29.475441140704532L228.375,29.556247218657887L229.58333333333331,29.48174792995792L230.79166666666666,29.41763081072577L232,29.424469432563626L233.20833333333334,29.312063471547134L234.41666666666666,29.147528306830196L235.625,29.1912076894842L236.83333333333334,29.146215078334507L238.04166666666666,29.06096687360815L239.25,29.152214574210404L240.45833333333334,29.14871055653518L241.66666666666669,29.004207664445914L242.875,28.97576242527498L244.08333333333334,29.036365465821206L245.29166666666666,28.943274411370254L246.5,29.042764004843264L247.70833333333331,29.089514016267685L248.91666666666666,29.01399863366254L250.125,29.039889644841537L251.33333333333334,28.94538891878247L252.54166666666666,28.96636252524189L253.75,28.965999086412012L254.95833333333334,29.011089916491187L256.1666666666667,29.064035761903682L257.375,29.031076829761844L258.58333333333337,29.211954589997447L259.7916666666667,29.365790139515923L261,29.1603467615993L262.2083333333333,29.09533723093196L263.4166666666667,29.0886928032032L264.625,29.19474147933238" style="fill: none;" fill="none"></path></g><g><path stroke="rgb(255, 112, 67)" stroke-width="2px" d="M24.166666666666664,157.85687246376818L25.375,145.29978163641962L26.583333333333332,133.9659042852155L27.791666666666668,121.26442759738049L29,107.50490476232314L30.208333333333336,94.11084229083576L31.416666666666668,82.47174005374751L32.625,73.83202265499499L33.833333333333336,67.25643724512962L35.041666666666664,62.5723046023505L36.25,59.04203545718019L37.458333333333336,56.50784891807953L38.666666666666664,54.533300483629205L39.875,53.22714768710452L41.083333333333336,52.22393334501159L42.29166666666667,51.027942063977974L43.5,50.22251932865717L44.708333333333336,49.612475932800606L45.916666666666664,48.984975249366954L47.125,48.406542505244715L48.33333333333333,48.01547898051359L49.541666666666664,47.730359300381366L50.75,47.4803227829442L51.958333333333336,47.30699942739065L53.166666666666664,46.97646082871424L54.375,46.83639100834222L55.583333333333336,46.55687344731203L56.791666666666664,46.51084980049757L58,46.25410233025394L59.208333333333336,45.98225230304698L60.41666666666667,45.892931324647776L61.625,45.67752070481606L62.833333333333336,45.4395314513728L64.04166666666667,45.34075049772926L65.25,45.30866957867579L66.45833333333333,45.074523999664876L67.66666666666667,45.0660821403778L68.875,44.9846392859495L70.08333333333333,44.988848713777145L71.29166666666666,44.867098989386704L72.5,44.739677711151245L73.70833333333333,44.8341055221386L74.91666666666667,44.67068768505936L76.125,44.48978544286908L77.33333333333333,44.505523336548805L78.54166666666666,44.476127122682755L79.75,44.4947395955042L80.95833333333333,44.36221029422026L82.16666666666667,44.3046990083962L83.375,44.30255738562019L84.58333333333334,44.19900332598334L85.79166666666667,44.10321329604079L87,43.957710240252965L88.20833333333333,43.87299715571234L89.41666666666667,43.801455455486774L90.625,43.7598267388405L91.83333333333333,43.61704407124449L93.04166666666667,43.75144899426596L94.25,43.643086269728514L95.45833333333333,40.07373591919111L96.66666666666666,36.637581488898036L97.875,34.13962483598519L99.08333333333333,32.484210314604894L100.29166666666667,31.364097471929995L101.5,30.73992740863406L102.70833333333334,30.331767776495894L103.91666666666667,30.11405579002087L105.125,29.87857076323317L106.33333333333333,29.838256387688432L107.54166666666667,29.675548475252214L108.75,29.471773447444917L109.95833333333333,29.199341702480723L111.16666666666667,29.16663183776987L112.375,29.097811973145326L113.58333333333333,29.034513759426545L114.79166666666666,28.801059209538323L116,28.712765316289165L117.20833333333333,28.795715660471075L118.41666666666667,28.621530149026455L119.625,28.601166685607268L120.83333333333334,28.455610676356258L122.04166666666667,28.486078650367745L123.25,28.361958953290525L124.45833333333333,28.363864873650016L125.66666666666667,28.27050944473666L126.875,28.23391373340087L128.08333333333334,28.09673961792305L129.29166666666669,27.93029116323484L130.5,27.926217375039982L131.70833333333334,27.904355556110858L132.91666666666666,27.860169619524697L134.125,27.618764889903844L135.33333333333334,27.594312380625354L136.54166666666666,27.60941727484405L137.75,27.52656612113202L138.95833333333334,27.46002663182452L140.16666666666666,27.499069425777748L141.375,27.549682753003623L142.58333333333331,27.60464579321507L143.79166666666666,27.506874435074337L145,27.44303412232611L146.20833333333334,27.417673679336644L147.41666666666666,27.27947833611708L148.625,27.30271141053089L149.83333333333334,27.288171158882363L151.04166666666669,27.496932782540313L152.25,27.460371729238773L153.45833333333334,27.332280958866164L154.66666666666666,27.145391163876184L155.875,27.13940756722775L157.08333333333331,27.26268539713155L158.29166666666666,27.189074115725873L159.5,27.089239599731712L160.70833333333334,27.214459516064608L161.91666666666666,27.171789886302264L163.125,27.125474258943655L164.33333333333334,26.973409501613645L165.54166666666666,27.1863891561961L166.75,27.123878825152445L167.95833333333334,25.308959214952296L169.16666666666669,23.41350606028243L170.375,21.952598112487834L171.58333333333334,20.92329786659937L172.79166666666666,20.132248392353404L174,19.59418471385945L175.20833333333331,19.21438631416939L176.41666666666666,18.948964627773876L177.625,18.708156379466942L178.83333333333334,18.584385279983962L180.04166666666666,18.53601396765913L181.25,18.474626031546507L182.45833333333334,18.339409236329033L183.66666666666666,18.339834395668163L184.875,18.315494447395707L186.08333333333334,18.312541777648704L187.29166666666669,18.339250272097388L188.5,18.250417533863896L189.70833333333334,18.269610577108807L190.91666666666666,18.310902802841525L192.125,18.339559332655966L193.33333333333331,18.323095656383998L194.54166666666666,18.365000145350734L195.75,18.43804048103982L196.95833333333334,18.501282228465442L198.16666666666666,18.557352377490076L199.375,18.50166912559351L200.58333333333334,18.59124210992755L201.79166666666666,18.60615080850357L203,18.559428280498423L204.20833333333334,18.63107510073428L205.41666666666669,18.727138333048543L206.625,18.817141421154815L207.83333333333334,18.85431447693827L209.04166666666666,18.864967011191823L210.25,18.872654835232936L211.45833333333331,18.84231363200803L212.66666666666666,18.851292702880926L213.875,18.83726259939249L215.08333333333334,18.883215980961182L216.29166666666666,18.4369852266299L217.5,17.968589796464357L218.70833333333334,17.66554624342095L219.91666666666666,17.422878724626457L221.125,17.27209685743989L222.33333333333334,17.136318843750843L223.54166666666669,17.014720640024024L224.75,16.956001765936378L225.95833333333334,16.933718044189277L227.16666666666666,16.89834151619698L228.375,16.844750450683875L229.58333333333331,16.789293212942965L230.79166666666666,16.784498966595237L232,16.747964824625996L233.20833333333334,16.724748035955457L234.41666666666666,16.74836060933464L235.625,16.705567960768462L236.83333333333334,16.678599926185882L238.04166666666666,16.668889048742983L239.25,16.65141508110679L240.45833333333334,16.66681818984395L241.66666666666669,16.678652662064223L242.875,16.661154443474317L244.08333333333334,16.640300516592873L245.29166666666666,16.643320654055287L246.5,16.633481437316192L247.70833333333331,16.648291756773915L248.91666666666666,16.66494419524423L250.125,16.66199191366698L251.33333333333334,16.625266647071072L252.54166666666666,16.60711653953439L253.75,16.596226475012344L254.95833333333334,16.619464978038877L256.1666666666667,16.61010933946781L257.375,16.585078410312974L258.58333333333337,16.598536091070827L259.7916666666667,16.567775607501176L261,16.573914361235296L262.2083333333333,16.571127670169147L263.4166666666667,16.565570603108597L264.625,16.601071454896612" style="fill: none;" fill="none"></path></g></g></g></g><g opacity="0.2"><g><g><g><path stroke="rgb(0, 119, 187)" stroke-width="2px" d="M24.166666666666664,153.95381864092568L25.375,134.4385459097949L26.583333333333332,140.91127183220604L27.791666666666668,127.36708981340581L29,80.65018322251059L30.208333333333336,84.2101856144992L31.416666666666668,77.44618203423242L32.625,73.38454684344207L33.833333333333336,69.79218508980493L35.041666666666664,62.89872477271341L36.25,72.93145790967075L37.458333333333336,63.90200001543219L38.666666666666664,63.57836781848562L39.875,63.23854147304189L41.083333333333336,59.24163465066391L42.29166666666667,57.99564008279282L43.5,50.681450193578556L44.708333333333336,61.345272866162404L45.916666666666664,63.384182713248535L47.125,58.82090507854116L48.33333333333333,52.72036004066469L49.541666666666664,73.82145127383147L50.75,54.5003660592166L51.958333333333336,57.65581373734909L53.166666666666664,75.90890498594804L54.375,55.03436786478217L55.583333333333336,60.47145436026834L56.791666666666664,61.539457971399486L58,54.61363829265942L59.208333333333336,49.38691176067701L60.41666666666667,57.364540902051075L61.625,63.30326984145425L62.833333333333336,71.02200479940934L64.04166666666667,55.95673023570669L65.25,46.39327053590256L66.45833333333333,51.458180969411686L67.66666666666667,57.607269872318625L68.875,62.33236360549927L70.08333333333333,51.18309263749558L71.29166666666666,55.794904492118164L72.5,62.170547507026L73.70833333333333,52.866001280871316L74.91666666666667,59.03127468716015L76.125,68.8536382154985L77.33333333333333,63.33563884821807L78.54166666666666,48.545452616431504L79.75,51.296364870938405L80.95833333333333,72.62400057099084L82.16666666666667,60.51999822529881L83.375,53.72363528338347L84.58333333333334,53.48090631311591L85.79166666666667,57.75291111252527L87,56.74963586980647L88.20833333333333,49.662000092593104L89.41666666666667,60.422910495237886L90.625,51.70090993967925L91.83333333333333,62.380907470529735L93.04166666666667,51.87891054153444L94.25,47.60690574212509L95.45833333333333,38.626001358032255L96.66666666666666,38.2052717859095L97.875,35.69708850167015L99.08333333333333,36.117818073792904L100.29166666666667,39.41890699213204L101.5,37.28290941498497L102.70833333333334,40.16326876120135L103.91666666666667,36.392906405709L105.125,43.885087251663236L106.33333333333333,36.7327231060375L107.54166666666667,38.01108668067238L108.75,42.42872307517311L109.95833333333333,39.273275397040635L111.16666666666667,38.0596401908181L112.375,38.4803601178256L113.58333333333333,42.493451443585485L114.79166666666666,40.583998333324104L116,38.318544019352316L117.20833333333333,39.17617802186447L118.41666666666667,37.040180444717436L119.625,39.75872369246051L120.83333333333334,39.742548834193855L122.04166666666667,43.02745324915108L123.25,40.535454468293636L124.45833333333333,41.87854641134089L125.66666666666667,38.0596401908181L126.875,37.994911822405726L128.08333333333334,38.94963355497882L129.29166666666669,37.49326937848872L130.5,37.379997145045905L131.70833333333334,44.80745926770297L132.91666666666666,36.52236314253375L134.125,42.784724278883516L135.33333333333334,38.28618465770376L136.54166666666666,39.28945025530729L137.75,39.9529087976976L138.95833333333334,36.50617863915184L140.16666666666666,38.10818405584857L141.375,37.50945388187063L142.58333333333331,37.15345267816025L143.79166666666666,36.50617863915184L145,38.642185861414134L146.20833333333334,36.65181987935847L147.41666666666666,39.88818042928523L148.625,40.60018283670601L149.83333333333334,37.97872731902382L151.04166666666669,37.719813845374375L152.25,39.71017982743004L153.45833333333334,43.96600012345749L154.66666666666666,41.10181563550776L155.875,41.7005458094857L157.08333333333331,37.185821684924036L158.29166666666666,36.99163657968697L159.5,39.40272248875013L160.70833333333334,46.66835886781868L161.91666666666666,36.79745147444984L163.125,37.29909391836688L164.33333333333334,40.47072609988126L165.54166666666666,37.541822888634414L166.75,41.58727357604286L167.95833333333334,31.70018167929217L169.16666666666669,30.874907038428574L170.375,30.842547676780015L171.58333333333334,30.373274239626795L172.79166666666666,30.179089134389727L174,30.7292754433372L175.20833333333331,30.243817502802074L176.41666666666666,30.0981859077107L177.625,30.29236136783254L178.83333333333334,30.61600320989436L180.04166666666666,30.713090939955293L181.25,31.959095152941615L182.45833333333334,31.24709274552086L183.66666666666666,31.87818228114736L184.875,30.696906436573386L186.08333333333334,30.8101786700162L187.29166666666669,30.874907038428574L188.5,32.282727349888205L189.70833333333334,31.06909214366567L190.91666666666666,32.29891185327011L192.125,31.58690944584933L193.33333333333331,30.842547676780015L194.54166666666666,30.842547676780015L195.75,31.117636008696138L196.95833333333334,32.752000787041425L198.16666666666666,31.55455008420077L199.375,32.120911251414924L200.58333333333334,31.651637814261704L201.79166666666666,32.2665428465063L203,32.68727241862905L204.20833333333334,32.00763901797208L205.41666666666669,33.93327663161537L206.625,31.942910649559735L207.83333333333334,32.29891185327011L209.04166666666666,33.900907624851584L210.25,33.85236375982112L211.45833333333331,31.926726146177828L212.66666666666666,35.098367972807466L213.875,30.76163480498576L215.08333333333334,32.606359546834796L216.29166666666666,30.114360765977352L217.5,30.065816900946885L218.70833333333334,29.984913674267858L219.91666666666666,29.66127183220604L221.125,29.53181509538132L222.33333333333334,29.80691307241267L223.54166666666669,29.677456335587948L224.75,29.758359562266975L225.95833333333334,29.240542260083288L227.16666666666666,29.337639635259478L228.375,29.677456335587948L229.58333333333331,29.369998996908038L230.79166666666666,29.32145513187757L232,29.434727365320384L233.20833333333334,29.14345453002238L234.41666666666666,28.900725559754818L235.625,29.256726763465196L236.83333333333334,29.078726161610007L238.04166666666666,28.933094566518633L239.25,29.289086125113755L240.45833333333334,29.14345453002238L241.66666666666669,28.787453326311976L242.875,28.933094566518633L244.08333333333334,29.127270026640474L245.29166666666666,28.803637829693884L246.5,29.19199839505282L247.70833333333331,29.15963903340426L248.91666666666666,28.900725559754818L250.125,29.078726161610007L251.33333333333334,28.803637829693884L252.54166666666666,28.99782293493098L253.75,28.965453928167193L254.95833333333334,29.078726161610007L256.1666666666667,29.14345453002238L257.375,28.9816384315491L258.58333333333337,29.48327123035085L259.7916666666667,29.596543463793665L261,28.85218169472435L262.2083333333333,28.99782293493098L263.4166666666667,29.078726161610007L264.625,29.35381449352613" style="fill: none;" fill="none"></path></g><g><path stroke="rgb(255, 112, 67)" stroke-width="2px" d="M24.166666666666664,157.85687246376818L25.375,137.76552714001048L26.583333333333332,123.08538202805954L27.791666666666668,106.32749101248655L29,89.54047174887224L30.208333333333336,75.582032030279L31.416666666666668,65.82763762907548L32.625,61.235231746326804L33.833333333333336,57.55872600728816L35.041666666666664,55.6169135353782L36.25,53.77865102074365L37.458333333333336,52.72036004066469L38.666666666666664,51.577925075184226L39.875,51.27047738161956L41.083333333333336,50.72029107267207L42.29166666666667,49.23479864814064L43.5,49.014726053584724L44.708333333333336,48.697565728967845L45.916666666666664,48.043819817629725L47.125,47.53894626010549L48.33333333333333,47.428905140269904L49.541666666666664,47.30268916216764L50.75,47.105272943323314L51.958333333333336,47.04701644724068L53.166666666666664,46.480655280026525L54.375,46.62628687511793L55.583333333333336,46.13759782097557L56.791666666666664,46.441814400933L58,45.86898136138919L59.208333333333336,45.5744774124839L60.41666666666667,45.75894988666883L61.625,45.354404817927986L62.833333333333336,45.08254759961909L64.04166666666667,45.19257907433945L65.25,45.26054820147428L66.45833333333333,44.72330563718623L67.66666666666667,45.05341935157779L68.875,44.862475005063146L70.08333333333333,44.995162855495124L71.29166666666666,44.68447440320796L72.5,44.548545794053524L73.70833333333333,44.97574723850599L74.91666666666667,44.425560929558486L76.125,44.218432079661994L77.33333333333333,44.52913017706439L78.54166666666666,44.4320328018882L79.75,44.52265830473468L80.95833333333333,44.163416342301815L82.16666666666667,44.218432079661994L83.375,44.29934495145625L84.58333333333334,44.04367223652926L85.79166666666667,43.95952825112778L87,43.739455656571835L88.20833333333333,43.74592752890155L89.41666666666667,43.694142905148595L90.625,43.69738366387108L91.83333333333333,43.40287006985059L93.04166666666667,43.95305637879807L94.25,43.48054218292239L95.45833333333333,34.71971039338547L96.66666666666666,31.48334984345871L97.875,30.39268985661593L99.08333333333333,30.00108853253451L100.29166666666667,29.68392820791766L101.5,29.803672313690214L102.70833333333334,29.719528328288703L103.91666666666667,29.787487810308306L105.125,29.525343223051607L106.33333333333333,29.777784824371366L107.54166666666667,29.43148660659793L108.75,29.166110905733973L109.95833333333333,28.79069408503446L111.16666666666667,29.117567040703534L112.375,28.994582176208525L113.58333333333333,28.939566438848345L114.79166666666666,28.45087738470599L116,28.580324476415484L117.20833333333333,28.920141176743954L118.41666666666667,28.36025188185954L119.625,28.570621490478544L120.83333333333334,28.237276662479758L122.04166666666667,28.531780611385017L123.25,28.17577940767464L124.45833333333333,28.366723754189252L125.66666666666667,28.130476301366656L126.875,28.179020166397123L128.08333333333334,27.89097844470632L129.29166666666669,27.680618481202572L130.5,27.920106692747652L131.70833333333334,27.871562827717185L132.91666666666666,27.793890714645414L134.125,27.25665779547259L135.33333333333334,27.557633616707562L136.54166666666666,27.632074616172105L137.75,27.402289390563993L138.95833333333334,27.360217397863238L140.16666666666666,27.557633616707562L141.375,27.625602743842393L142.58333333333331,27.687090353532284L143.79166666666666,27.360217397863238L145,27.347273653203814L146.20833333333334,27.379633014852374L147.41666666666666,27.07218532128769L148.625,27.33756102215162L149.83333333333334,27.26636078140953L151.04166666666669,27.810075218027293L152.25,27.40553014928645L153.45833333333334,27.140144803307294L154.66666666666666,26.86505647139117L155.875,27.130432172255098L157.08333333333331,27.447602141987204L158.29166666666666,27.078657193617403L159.5,26.939487825740486L160.70833333333334,27.402289390563993L161.91666666666666,27.107785441658734L163.125,27.056000817905783L164.33333333333334,26.745312365618616L165.54166666666666,27.505858638069867L166.75,27.030113328586935L167.95833333333334,22.586579799652128L169.16666666666669,20.570326328277616L170.375,19.761236190795927L171.58333333333334,19.379347497766673L172.79166666666666,18.945674180984525L174,18.787089196118444L175.20833333333331,18.6446887146343L176.41666666666666,18.55083209818062L177.625,18.346944007006556L178.83333333333334,18.398728630759507L180.04166666666666,18.463456999171882L181.25,18.3825441273776L182.45833333333334,18.136584043502836L183.66666666666666,18.340472134676844L184.875,18.27898452498698L186.08333333333334,18.308112773028284L187.29166666666669,18.37931301377037L188.5,18.1171684265137L189.70833333333334,18.298400141976117L190.91666666666666,18.37284114144066L192.125,18.3825441273776L193.33333333333331,18.298400141976117L194.54166666666666,18.42785687880084L195.75,18.547600984573393L196.95833333333334,18.59614484960383L198.16666666666666,18.64145760102707L199.375,18.418144247748643L200.58333333333334,18.725601586428553L201.79166666666666,18.628513856367647L203,18.48934448849073L204.20833333333334,18.738545331087977L205.41666666666669,18.871233181519955L206.625,18.952146053314237L207.83333333333334,18.910074060613482L209.04166666666666,18.88094581257215L210.25,18.884186571294634L211.45833333333331,18.79680182717064L212.66666666666666,18.864761309190243L213.875,18.816217444159776L215.08333333333334,18.952146053314237L216.29166666666666,17.767639095133006L217.5,17.265996651216L218.70833333333334,17.21098091385582L219.91666666666666,17.058877446434735L221.125,17.045924056660056L222.33333333333334,16.932651823217242L223.54166666666669,16.832323334433823L224.75,16.867923454804867L225.95833333333334,16.900292461568682L227.16666666666666,16.845276724208503L228.375,16.76436385241422L229.58333333333331,16.706107356331586L230.79166666666666,16.777307597073644L232,16.693163611672162L233.20833333333334,16.689922852949678L234.41666666666666,16.783779469403356L235.625,16.64137898791921L236.83333333333334,16.638147874311983L238.04166666666666,16.654322732578635L239.25,16.62520412965256L240.45833333333334,16.689922852949678L241.66666666666669,16.696404370394617L242.875,16.6349071155895L244.08333333333334,16.60901962627065L245.29166666666666,16.647850860248923L246.5,16.61872261220759L247.70833333333331,16.670507235960542L248.91666666666666,16.689922852949678L250.125,16.65756349130112L251.33333333333334,16.570178747177152L252.54166666666666,16.57989137822932L253.75,16.57989137822932L254.95833333333334,16.654322732578635L256.1666666666667,16.596075881611227L257.375,16.54753201658076L258.58333333333337,16.61872261220759L259.7916666666667,16.521634882146685L261,16.583122491836576L262.2083333333333,16.566947633569896L263.4166666666667,16.55723500251773L264.625,16.654322732578635" style="fill: none;" fill="none"></path></g></g></g></g></g></g><g transform="translate(40, 178)" clip-path="url(#clip_1)"><clipPath id="clip_1"><rect width="290" height="22"></rect></clipPath><g><g><line x1="0" y1="0" x2="0" y2="5" style="visibility: inherit;" fill="rgb(0, 0, 0)" stroke="rgb(204, 204, 204)" stroke-width="1px"></line><line x1="24.166666666666664" y1="0" x2="24.166666666666664" y2="5" style="visibility: inherit;" fill="rgb(0, 0, 0)" stroke="rgb(204, 204, 204)" stroke-width="1px"></line><line x1="48.33333333333333" y1="0" x2="48.33333333333333" y2="5" style="visibility: inherit;" fill="rgb(0, 0, 0)" stroke="rgb(204, 204, 204)" stroke-width="1px"></line><line x1="72.5" y1="0" x2="72.5" y2="5" style="visibility: inherit;" fill="rgb(0, 0, 0)" stroke="rgb(204, 204, 204)" stroke-width="1px"></line><line x1="96.66666666666666" y1="0" x2="96.66666666666666" y2="5" style="visibility: inherit;" fill="rgb(0, 0, 0)" stroke="rgb(204, 204, 204)" stroke-width="1px"></line><line x1="120.83333333333334" y1="0" x2="120.83333333333334" y2="5" style="visibility: inherit;" fill="rgb(0, 0, 0)" stroke="rgb(204, 204, 204)" stroke-width="1px"></line><line x1="145" y1="0" x2="145" y2="5" style="visibility: inherit;" fill="rgb(0, 0, 0)" stroke="rgb(204, 204, 204)" stroke-width="1px"></line><line x1="169.16666666666669" y1="0" x2="169.16666666666669" y2="5" style="visibility: inherit;" fill="rgb(0, 0, 0)" stroke="rgb(204, 204, 204)" stroke-width="1px"></line><line x1="193.33333333333331" y1="0" x2="193.33333333333331" y2="5" style="visibility: inherit;" fill="rgb(0, 0, 0)" stroke="rgb(204, 204, 204)" stroke-width="1px"></line><line x1="217.5" y1="0" x2="217.5" y2="5" style="visibility: inherit;" fill="rgb(0, 0, 0)" stroke="rgb(204, 204, 204)" stroke-width="1px"></line><line x1="241.66666666666669" y1="0" x2="241.66666666666669" y2="5" style="visibility: inherit;" fill="rgb(0, 0, 0)" stroke="rgb(204, 204, 204)" stroke-width="1px"></line><line x1="265.8333333333333" y1="0" x2="265.8333333333333" y2="5" style="visibility: inherit;" fill="rgb(0, 0, 0)" stroke="rgb(204, 204, 204)" stroke-width="1px"></line><line x1="290" y1="0" x2="290" y2="5" style="visibility: inherit;" fill="rgb(0, 0, 0)" stroke="rgb(204, 204, 204)" stroke-width="1px"></line></g><g transform="translate(0, 8)"><text x="0" y="0" dx="0em" dy="0.95em" style="text-anchor: middle; visibility: hidden; font-family: &quot;Helvetica Neue&quot;, sans-serif; font-size: 12px; font-weight: 200;" fill="rgb(50, 49, 63)" stroke="none" stroke-width="1px">-20</text><text x="24.166666666666664" y="0" dx="0em" dy="0.95em" style="text-anchor: middle; visibility: inherit; font-family: &quot;Helvetica Neue&quot;, sans-serif; font-size: 12px; font-weight: 200;" fill="rgb(50, 49, 63)" stroke="none" stroke-width="1px">0</text><text x="48.33333333333333" y="0" dx="0em" dy="0.95em" style="text-anchor: middle; visibility: hidden; font-family: &quot;Helvetica Neue&quot;, sans-serif; font-size: 12px; font-weight: 200;" fill="rgb(50, 49, 63)" stroke="none" stroke-width="1px">20</text><text x="72.5" y="0" dx="0em" dy="0.95em" style="text-anchor: middle; visibility: inherit; font-family: &quot;Helvetica Neue&quot;, sans-serif; font-size: 12px; font-weight: 200;" fill="rgb(50, 49, 63)" stroke="none" stroke-width="1px">40</text><text x="96.66666666666666" y="0" dx="0em" dy="0.95em" style="text-anchor: middle; visibility: hidden; font-family: &quot;Helvetica Neue&quot;, sans-serif; font-size: 12px; font-weight: 200;" fill="rgb(50, 49, 63)" stroke="none" stroke-width="1px">60</text><text x="120.83333333333334" y="0" dx="0em" dy="0.95em" style="text-anchor: middle; visibility: inherit; font-family: &quot;Helvetica Neue&quot;, sans-serif; font-size: 12px; font-weight: 200;" fill="rgb(50, 49, 63)" stroke="none" stroke-width="1px">80</text><text x="145" y="0" dx="0em" dy="0.95em" style="text-anchor: middle; visibility: hidden; font-family: &quot;Helvetica Neue&quot;, sans-serif; font-size: 12px; font-weight: 200;" fill="rgb(50, 49, 63)" stroke="none" stroke-width="1px">100</text><text x="169.16666666666669" y="0" dx="0em" dy="0.95em" style="text-anchor: middle; visibility: inherit; font-family: &quot;Helvetica Neue&quot;, sans-serif; font-size: 12px; font-weight: 200;" fill="rgb(50, 49, 63)" stroke="none" stroke-width="1px">120</text><text x="193.33333333333331" y="0" dx="0em" dy="0.95em" style="text-anchor: middle; visibility: hidden; font-family: &quot;Helvetica Neue&quot;, sans-serif; font-size: 12px; font-weight: 200;" fill="rgb(50, 49, 63)" stroke="none" stroke-width="1px">140</text><text x="217.5" y="0" dx="0em" dy="0.95em" style="text-anchor: middle; visibility: inherit; font-family: &quot;Helvetica Neue&quot;, sans-serif; font-size: 12px; font-weight: 200;" fill="rgb(50, 49, 63)" stroke="none" stroke-width="1px">160</text><text x="241.66666666666669" y="0" dx="0em" dy="0.95em" style="text-anchor: middle; visibility: hidden; font-family: &quot;Helvetica Neue&quot;, sans-serif; font-size: 12px; font-weight: 200;" fill="rgb(50, 49, 63)" stroke="none" stroke-width="1px">180</text><text x="265.8333333333333" y="0" dx="0em" dy="0.95em" style="text-anchor: middle; visibility: inherit; font-family: &quot;Helvetica Neue&quot;, sans-serif; font-size: 12px; font-weight: 200;" fill="rgb(50, 49, 63)" stroke="none" stroke-width="1px">200</text><text x="290" y="0" dx="0em" dy="0.95em" style="text-anchor: middle; visibility: hidden; font-family: &quot;Helvetica Neue&quot;, sans-serif; font-size: 12px; font-weight: 200;" fill="rgb(50, 49, 63)" stroke="none" stroke-width="1px">220</text></g><line x1="0" y1="0" x2="290" y2="0" fill="rgb(0, 0, 0)" stroke="rgb(204, 204, 204)" stroke-width="1px"></line></g></g></g></g></svg>