<svg viewBox="0 0 2136 400" xmlns="http://www.w3.org/2000/svg"><g><g><g><g><g><line x1="40" y1="378" x2="35" y2="378" style="visibility: inherit;" fill="rgb(0, 0, 0)" stroke="rgb(204, 204, 204)" stroke-width="1px"></line><line x1="40" y1="343.6363636363636" x2="35" y2="343.6363636363636" style="visibility: inherit;" fill="rgb(0, 0, 0)" stroke="rgb(204, 204, 204)" stroke-width="1px"></line><line x1="40" y1="309.27272727272725" x2="35" y2="309.27272727272725" style="visibility: inherit;" fill="rgb(0, 0, 0)" stroke="rgb(204, 204, 204)" stroke-width="1px"></line><line x1="40" y1="274.90909090909093" x2="35" y2="274.90909090909093" style="visibility: inherit;" fill="rgb(0, 0, 0)" stroke="rgb(204, 204, 204)" stroke-width="1px"></line><line x1="40" y1="240.54545454545453" x2="35" y2="240.54545454545453" style="visibility: inherit;" fill="rgb(0, 0, 0)" stroke="rgb(204, 204, 204)" stroke-width="1px"></line><line x1="40" y1="206.1818181818182" x2="35" y2="206.1818181818182" style="visibility: inherit;" fill="rgb(0, 0, 0)" stroke="rgb(204, 204, 204)" stroke-width="1px"></line><line x1="40" y1="171.81818181818184" x2="35" y2="171.81818181818184" style="visibility: inherit;" fill="rgb(0, 0, 0)" stroke="rgb(204, 204, 204)" stroke-width="1px"></line><line x1="40" y1="137.4545454545455" x2="35" y2="137.4545454545455" style="visibility: inherit;" fill="rgb(0, 0, 0)" stroke="rgb(204, 204, 204)" stroke-width="1px"></line><line x1="40" y1="103.09090909090907" x2="35" y2="103.09090909090907" style="visibility: inherit;" fill="rgb(0, 0, 0)" stroke="rgb(204, 204, 204)" stroke-width="1px"></line><line x1="40" y1="68.72727272727275" x2="35" y2="68.72727272727275" style="visibility: inherit;" fill="rgb(0, 0, 0)" stroke="rgb(204, 204, 204)" stroke-width="1px"></line><line x1="40" y1="34.363636363636374" x2="35" y2="34.363636363636374" style="visibility: inherit;" fill="rgb(0, 0, 0)" stroke="rgb(204, 204, 204)" stroke-width="1px"></line><line x1="40" y1="0" x2="35" y2="0" style="visibility: inherit;" fill="rgb(0, 0, 0)" stroke="rgb(204, 204, 204)" stroke-width="1px"></line></g><g transform="translate(30, 0)"><text x="0" y="378" dx="0em" dy="0.3em" style="text-anchor: end; visibility: hidden; font-family: &quot;Helvetica Neue&quot;, sans-serif; font-size: 12px; font-weight: 200;" fill="rgb(50, 49, 63)" stroke="none" stroke-width="1px">0</text><text x="0" y="343.6363636363636" dx="0em" dy="0.3em" style="text-anchor: end; visibility: inherit; font-family: &quot;Helvetica Neue&quot;, sans-serif; font-size: 12px; font-weight: 200;" fill="rgb(50, 49, 63)" stroke="none" stroke-width="1px">0.1</text><text x="0" y="309.27272727272725" dx="0em" dy="0.3em" style="text-anchor: end; visibility: inherit; font-family: &quot;Helvetica Neue&quot;, sans-serif; font-size: 12px; font-weight: 200;" fill="rgb(50, 49, 63)" stroke="none" stroke-width="1px">0.2</text><text x="0" y="274.90909090909093" dx="0em" dy="0.3em" style="text-anchor: end; visibility: inherit; font-family: &quot;Helvetica Neue&quot;, sans-serif; font-size: 12px; font-weight: 200;" fill="rgb(50, 49, 63)" stroke="none" stroke-width="1px">0.3</text><text x="0" y="240.54545454545453" dx="0em" dy="0.3em" style="text-anchor: end; visibility: inherit; font-family: &quot;Helvetica Neue&quot;, sans-serif; font-size: 12px; font-weight: 200;" fill="rgb(50, 49, 63)" stroke="none" stroke-width="1px">0.4</text><text x="0" y="206.1818181818182" dx="0em" dy="0.3em" style="text-anchor: end; visibility: inherit; font-family: &quot;Helvetica Neue&quot;, sans-serif; font-size: 12px; font-weight: 200;" fill="rgb(50, 49, 63)" stroke="none" stroke-width="1px">0.5</text><text x="0" y="171.81818181818184" dx="0em" dy="0.3em" style="text-anchor: end; visibility: inherit; font-family: &quot;Helvetica Neue&quot;, sans-serif; font-size: 12px; font-weight: 200;" fill="rgb(50, 49, 63)" stroke="none" stroke-width="1px">0.6</text><text x="0" y="137.4545454545455" dx="0em" dy="0.3em" style="text-anchor: end; visibility: inherit; font-family: &quot;Helvetica Neue&quot;, sans-serif; font-size: 12px; font-weight: 200;" fill="rgb(50, 49, 63)" stroke="none" stroke-width="1px">0.7</text><text x="0" y="103.09090909090907" dx="0em" dy="0.3em" style="text-anchor: end; visibility: inherit; font-family: &quot;Helvetica Neue&quot;, sans-serif; font-size: 12px; font-weight: 200;" fill="rgb(50, 49, 63)" stroke="none" stroke-width="1px">0.8</text><text x="0" y="68.72727272727275" dx="0em" dy="0.3em" style="text-anchor: end; visibility: inherit; font-family: &quot;Helvetica Neue&quot;, sans-serif; font-size: 12px; font-weight: 200;" fill="rgb(50, 49, 63)" stroke="none" stroke-width="1px">0.9</text><text x="0" y="34.363636363636374" dx="0em" dy="0.3em" style="text-anchor: end; visibility: inherit; font-family: &quot;Helvetica Neue&quot;, sans-serif; font-size: 12px; font-weight: 200;" fill="rgb(50, 49, 63)" stroke="none" stroke-width="1px">1</text><text x="0" y="0" dx="0em" dy="0.3em" style="text-anchor: end; visibility: hidden; font-family: &quot;Helvetica Neue&quot;, sans-serif; font-size: 12px; font-weight: 200;" fill="rgb(50, 49, 63)" stroke="none" stroke-width="1px">1.1</text></g><line x1="40" y1="0" x2="40" y2="378" fill="rgb(0, 0, 0)" stroke="rgb(204, 204, 204)" stroke-width="1px"></line></g></g><g transform="translate(40, 0)" clip-path="url(#clip_0)"><clipPath id="clip_0"><rect width="2096" height="378"></rect></clipPath><g><g><g><line x1="0" y1="0" x2="0" y2="378" fill="rgb(0, 0, 0)" stroke="rgb(60, 60, 60)" stroke-width="1px" opacity="0.25"></line><line x1="174.66666666666666" y1="0" x2="174.66666666666666" y2="378" fill="rgb(0, 0, 0)" stroke="rgb(60, 60, 60)" stroke-width="1px" opacity="0.25"></line><line x1="349.3333333333333" y1="0" x2="349.3333333333333" y2="378" fill="rgb(0, 0, 0)" stroke="rgb(60, 60, 60)" stroke-width="1px" opacity="0.25"></line><line x1="524" y1="0" x2="524" y2="378" fill="rgb(0, 0, 0)" stroke="rgb(60, 60, 60)" stroke-width="1px" opacity="0.25"></line><line x1="698.6666666666666" y1="0" x2="698.6666666666666" y2="378" fill="rgb(0, 0, 0)" stroke="rgb(60, 60, 60)" stroke-width="1px" opacity="0.25"></line><line x1="873.3333333333334" y1="0" x2="873.3333333333334" y2="378" fill="rgb(0, 0, 0)" stroke="rgb(60, 60, 60)" stroke-width="1px" opacity="0.25"></line><line x1="1048" y1="0" x2="1048" y2="378" fill="rgb(0, 0, 0)" stroke="rgb(60, 60, 60)" stroke-width="1px" opacity="0.25"></line><line x1="1222.6666666666667" y1="0" x2="1222.6666666666667" y2="378" fill="rgb(0, 0, 0)" stroke="rgb(60, 60, 60)" stroke-width="1px" opacity="0.25"></line><line x1="1397.3333333333333" y1="0" x2="1397.3333333333333" y2="378" fill="rgb(0, 0, 0)" stroke="rgb(60, 60, 60)" stroke-width="1px" opacity="0.25"></line><line x1="1572" y1="0" x2="1572" y2="378" fill="rgb(0, 0, 0)" stroke="rgb(60, 60, 60)" stroke-width="1px" opacity="0.25"></line><line x1="1746.6666666666667" y1="0" x2="1746.6666666666667" y2="378" fill="rgb(0, 0, 0)" stroke="rgb(60, 60, 60)" stroke-width="1px" opacity="0.25"></line><line x1="1921.3333333333333" y1="0" x2="1921.3333333333333" y2="378" fill="rgb(0, 0, 0)" stroke="rgb(60, 60, 60)" stroke-width="1px" opacity="0.25"></line><line x1="2096" y1="0" x2="2096" y2="378" fill="rgb(0, 0, 0)" stroke="rgb(60, 60, 60)" stroke-width="1px" opacity="0.25"></line></g><g><line x1="0" y1="378" x2="2096" y2="378" fill="rgb(0, 0, 0)" stroke="rgb(60, 60, 60)" stroke-width="1px" opacity="0.25"></line><line x1="0" y1="343.6363636363636" x2="2096" y2="343.6363636363636" fill="rgb(0, 0, 0)" stroke="rgb(60, 60, 60)" stroke-width="1px" opacity="0.25"></line><line x1="0" y1="309.27272727272725" x2="2096" y2="309.27272727272725" fill="rgb(0, 0, 0)" stroke="rgb(60, 60, 60)" stroke-width="1px" opacity="0.25"></line><line x1="0" y1="274.90909090909093" x2="2096" y2="274.90909090909093" fill="rgb(0, 0, 0)" stroke="rgb(60, 60, 60)" stroke-width="1px" opacity="0.25"></line><line x1="0" y1="240.54545454545453" x2="2096" y2="240.54545454545453" fill="rgb(0, 0, 0)" stroke="rgb(60, 60, 60)" stroke-width="1px" opacity="0.25"></line><line x1="0" y1="206.1818181818182" x2="2096" y2="206.1818181818182" fill="rgb(0, 0, 0)" stroke="rgb(60, 60, 60)" stroke-width="1px" opacity="0.25"></line><line x1="0" y1="171.81818181818184" x2="2096" y2="171.81818181818184" fill="rgb(0, 0, 0)" stroke="rgb(60, 60, 60)" stroke-width="1px" opacity="0.25"></line><line x1="0" y1="137.4545454545455" x2="2096" y2="137.4545454545455" fill="rgb(0, 0, 0)" stroke="rgb(60, 60, 60)" stroke-width="1px" opacity="0.25"></line><line x1="0" y1="103.09090909090907" x2="2096" y2="103.09090909090907" fill="rgb(0, 0, 0)" stroke="rgb(60, 60, 60)" stroke-width="1px" opacity="0.25"></line><line x1="0" y1="68.72727272727275" x2="2096" y2="68.72727272727275" fill="rgb(0, 0, 0)" stroke="rgb(60, 60, 60)" stroke-width="1px" opacity="0.25"></line><line x1="0" y1="34.363636363636374" x2="2096" y2="34.363636363636374" fill="rgb(0, 0, 0)" stroke="rgb(60, 60, 60)" stroke-width="1px" opacity="0.25"></line><line x1="0" y1="0" x2="2096" y2="0" fill="rgb(0, 0, 0)" stroke="rgb(60, 60, 60)" stroke-width="1px" opacity="0.25"></line></g></g></g><g><g><line x1="0" y1="378" x2="2096" y2="378" fill="rgb(0, 0, 0)" stroke="rgb(153, 153, 153)" stroke-width="1.5px"></line></g></g><g><g><line x1="174.66666666666666" y1="0" x2="174.66666666666666" y2="378" fill="rgb(0, 0, 0)" stroke="rgb(153, 153, 153)" stroke-width="1.5px"></line></g></g><g><g><g><g><g><path stroke="rgb(0, 119, 187)" stroke-width="2px" d="M174.66666666666666,326.935637338595L183.39999999999998,301.03404642438346L192.13333333333333,300.1179735312214L200.86666666666667,286.4958255349753L209.60000000000002,236.5186139994161L218.33333333333334,212.3131887589111L227.06666666666666,192.62244406268547L235.8,177.65775466353102L244.53333333333333,165.75888786941002L253.26666666666668,152.80558876990744L262,153.63713658700152L270.73333333333335,146.44743154236735L279.46666666666664,141.86837281847812L288.20000000000005,138.83588028525705L296.93333333333334,133.6211839350761L305.6666666666667,129.43524171084027L314.4,120.71042814673882L323.1333333333333,124.53566367859457L331.8666666666667,128.56258980667192L340.6,127.10222435519705L349.3333333333333,121.04388956649387L358.06666666666666,135.33328267664513L366.79999999999995,127.494600668701L375.53333333333336,125.47180158657989L384.26666666666665,139.7630453681822L393,130.6061061017152L401.73333333333335,129.7304262438386L410.46666666666664,130.1122225272542L419.20000000000005,124.4582421626015L427.93333333333334,116.62607310660269L436.6666666666667,118.70327663606463L445.4,124.99418221280436L454.1333333333333,135.32531389781613L462.8666666666667,128.72697248468916L471.6,116.64439960349017L480.3333333333333,113.69718446526292L489.06666666666666,117.15212645725029L497.79999999999995,123.23876677982457L506.53333333333336,117.42013425037698L515.2666666666667,117.84640391713452L524,123.51788046192127L532.7333333333333,119.01712936300788L541.4666666666667,121.55369746515862L550.2,131.41912914475583L558.9333333333333,132.6511886883893L567.6666666666666,120.82707521007393L576.4000000000001,116.06933708365216L585.1333333333333,131.33120273555542L593.8666666666667,130.20672013381906L602.5999999999999,123.75894025354035L611.3333333333334,119.6840890652681L620.0666666666667,120.86798242912954L628.8,120.72609812890857L637.5333333333333,114.62045895599096L646.2666666666667,120.09780383921577L655,115.975410297233L663.7333333333333,122.57397207465641L672.4666666666667,117.61231174973705L681.2,111.0065114779839L689.9333333333333,99.41430804035423L698.6666666666666,92.10160220640063L707.4000000000001,85.58343200615786L716.1333333333333,82.02991365738836L724.8666666666667,82.70187368437894L733.5999999999999,81.29065175863707L742.3333333333334,82.8906058680679L751.0666666666667,80.6478885126565L759.8,85.66640272810781L768.5333333333333,82.60201991570102L777.2666666666667,81.84928108491306L786,85.15014690356679L794.7333333333333,84.45030859176114L803.4666666666667,82.99949749692018L812.2,82.48638641846242L820.9333333333333,85.58739285259503L829.6666666666666,85.82603429581877L838.4000000000001,84.04485572201975L847.1333333333333,83.70465566302033L855.8666666666667,81.68613768568451L864.5999999999999,82.78426138837716L873.3333333333334,83.42939606746518L882.0666666666667,86.60680017571303L890.8,86.39644367624805L899.5333333333333,87.41110338212383L908.2666666666667,84.77597437113775L917,83.13991421564754L925.7333333333333,82.9692552345166L934.4666666666667,81.629768477943L943.2,80.72985866165874L951.9333333333333,86.49908284461713L960.6666666666666,82.9229401963832L969.4000000000001,86.09674339292644L978.1333333333333,84.17979390229976L986.8666666666667,83.88183633352855L995.5999999999999,84.2666288237794L1004.3333333333334,81.56972004842356L1013.0666666666667,81.31237938435925L1021.8,80.64939070330564L1030.5333333333333,79.94919647219592L1039.2666666666667,78.97926063747343L1048,80.21170527150554L1056.7333333333333,79.26047915031342L1065.4666666666667,81.43883176495171L1074.1999999999998,83.35064537868982L1082.9333333333334,82.2709690847218L1091.6666666666667,81.40323231274664L1100.4,82.57328315117275L1109.1333333333334,86.89036999557317L1117.8666666666666,87.0476743798651L1126.6,87.65064129305523L1135.3333333333333,84.17744229695967L1144.0666666666666,81.92857465260653L1152.8000000000002,82.62732254605277L1161.5333333333333,89.2182803861383L1170.2666666666667,84.78812925941793L1179,82.55615283911737L1187.7333333333333,83.91107252539206L1196.4666666666667,82.23610205883926L1205.1999999999998,84.66748013809956L1213.9333333333334,77.72783341942704L1222.6666666666667,72.86302558092814L1231.4,69.91665359984421L1240.1333333333334,67.75021162637603L1248.8666666666666,66.28539819559938L1257.6,65.87385940630674L1266.3333333333333,65.21456961245639L1275.0666666666666,64.69529069582137L1283.8000000000002,64.54866339960677L1292.5333333333333,64.73560076637102L1301.2666666666667,64.9302332133127L1310,66.10541626014924L1318.7333333333333,66.20572404329602L1327.4666666666667,66.80198027378373L1336.1999999999998,66.15631318230339L1344.9333333333334,65.86513068975529L1353.6666666666667,65.7454039431251L1362.4,66.86942424960034L1371.1333333333334,66.5129283257279L1379.8666666666666,67.343686614619L1388.6,67.23733954299854L1397.3333333333333,66.54124197708643L1406.0666666666666,66.1235834375392L1414.8000000000002,66.10665885193282L1423.5333333333333,67.48479597970277L1432.2666666666667,67.29451788406413L1441,67.66143983838191L1449.7333333333333,67.48297422615485L1458.4666666666667,67.8982186839612L1467.1999999999998,68.5047491300212L1475.9333333333334,68.29136082361595L1484.6666666666667,69.79903799248552L1493.4,69.01295139219599L1502.1333333333334,68.84370045449987L1510.8666666666666,70.1029463001019L1519.6,70.8172587940216L1528.3333333333333,69.61013613766062L1537.0666666666666,71.57997627522832L1545.8000000000002,69.07809353206875L1554.5333333333333,69.14394355453015L1563.2666666666667,67.06665460359324L1572,65.77904621958947L1580.7333333333333,64.937758897761L1589.4666666666667,64.15807276017097L1598.1999999999998,63.58029557981979L1606.9333333333334,63.46730800266039L1615.6666666666667,63.289549958567534L1624.4,63.25161742353811L1633.1333333333334,62.78900410426104L1641.8666666666666,62.59391433250738L1650.6,62.76551375647574L1659.3333333333333,62.607307401820776L1668.0666666666666,62.4711485755862L1676.8000000000002,62.485671042185686L1685.5333333333333,62.246966248566366L1694.2666666666667,61.897560112257395L1703,61.99031745294957L1711.7333333333333,61.894771346126106L1720.4666666666667,61.71373864170721L1729.1999999999998,61.90751184860409L1737.9333333333334,61.90007073241742L1746.6666666666667,61.593205040227815L1755.4,61.532798858168235L1764.1333333333334,61.661495202698916L1772.8666666666666,61.463807457853704L1781.6,61.67508311140875L1790.3333333333333,61.77436122555724L1799.0666666666666,61.61399709845193L1807.8000000000002,61.66897913342751L1816.5333333333333,61.468297816290885L1825.2666666666667,61.5128372727047L1834,61.51206547563896L1842.7333333333333,61.60782015973973L1851.4666666666667,61.720255719098816L1860.1999999999998,61.65026427893247L1868.9333333333334,62.034375477635024L1877.6666666666667,62.36105995919672L1886.4,61.92478132519403L1895.1333333333334,61.78672737804652L1903.8666666666666,61.77261730118431L1912.6,61.99782179318896" style="fill: none;" fill="none"></path></g><g><path stroke="rgb(255, 112, 67)" stroke-width="2px" d="M174.66666666666666,335.2241448949684L183.39999999999998,308.55796325037426L192.13333333333333,284.4893922461318L200.86666666666667,257.51659343713385L209.60000000000002,228.29693258515815L218.33333333333334,199.8533617187411L227.06666666666666,175.13661651863234L235.8,156.78935148083204L244.53333333333333,142.8254678576348L253.26666666666668,132.87826482971062L262,125.38140113940514L270.73333333333335,119.9998139945734L279.46666666666664,115.80667181354966L288.20000000000005,113.03293160519951L296.93333333333334,110.90251013715942L305.6666666666667,108.36270842799814L314.4,106.65231632714836L323.1333333333333,105.35683091347545L331.8666666666667,104.02427328236348L340.6,102.79591610664329L349.3333333333333,101.96545536311311L358.06666666666666,101.3599764918211L366.79999999999995,100.82900006715118L375.53333333333336,100.46093136827903L384.26666666666665,99.75900108569653L393,99.4615494446818L401.73333333333335,98.86796720833678L410.46666666666664,98.7702315988094L419.20000000000005,98.22500382492126L427.93333333333334,97.64770432894244L436.6666666666667,97.4580227006565L445.4,97.00057767651947L454.1333333333333,96.49518476752206L462.8666666666667,96.28541397832396L471.6,96.21728708280591L480.3333333333333,95.720056583558L489.06666666666666,95.70212948911688L497.79999999999995,95.52917780948826L506.53333333333336,95.53811693150425L515.2666666666667,95.27956976397849L524,95.00897851019761L532.7333333333333,95.20950498521569L541.4666666666667,94.8624716008564L550.2,94.47830841238488L558.9333333333333,94.51172933267111L567.6666666666666,94.44930366502291L576.4000000000001,94.488829028655L585.1333333333333,94.20739040008573L593.8666666666667,94.0852596919874L602.5999999999999,94.08071175148552L611.3333333333334,93.86080481585225L620.0666666666667,93.65738553878327L628.8,93.34839590345854L637.5333333333333,93.16849957786104L646.2666666666667,93.01657394479776L655,92.92817138922305L663.7333333333333,92.62495875803609L672.4666666666667,92.91038044849734L681.2,92.68026185369314L689.9333333333333,85.10040549131594L698.6666666666666,77.80340338653627L707.4000000000001,72.49875386518198L716.1333333333333,68.98332302764408L724.8666666666667,66.60465642915472L733.5999999999999,65.2791716879982L742.3333333333334,64.4124057276149L751.0666666666667,63.95007353161736L759.8,63.44999858709065L768.5333333333333,63.364387160372075L777.2666666666667,63.018861368794035L786,62.58612563558529L794.7333333333333,62.00759080639165L803.4666666666667,61.93812828470226L812.2,61.79198272948838L820.9333333333333,61.65756292732152L829.6666666666666,61.16179989441281L838.4000000000001,60.97429937953541L847.1333333333333,61.150452357629604L855.8666666666667,60.78055278838201L864.5999999999999,60.73730902898626L873.3333333333334,60.42820694192511L882.0666666666667,60.492908594601204L890.8,60.229328563729325L899.5333333333333,60.23337596763878L908.2666666666667,60.03512679837337L917,59.95741231025579L925.7333333333333,59.66610997513993L934.4666666666667,59.31264078484702L943.2,59.303989706545565L951.9333333333333,59.257564046123036L960.6666666666666,59.16373098977715L969.4000000000001,58.6510849909194L978.1333333333333,58.59915775211448L986.8666666666667,58.631234437590194L995.5999999999999,58.45529209993208L1004.3333333333334,58.31398913949249L1013.0666666666667,58.39690024125838L1021.8,58.50438247547959L1030.5333333333333,58.62110174064776L1039.2666666666667,58.41347492392191L1048,58.27790392269253L1056.7333333333333,58.22404859993958L1065.4666666666667,57.9305775901812L1074.1999999999998,57.97991524258805L1082.9333333333334,57.94903762953669L1091.6666666666667,58.39236287528229L1100.4,58.31472198681041L1109.1333333333334,58.042709002536014L1117.8666666666666,57.64583067384939L1126.6,57.633123934899345L1135.3333333333333,57.89491618042541L1144.0666666666666,57.73859559406958L1152.8000000000002,57.52658746459883L1161.5333333333333,57.79250391613721L1170.2666666666667,57.701890882147495L1179,57.60353522404887L1187.7333333333333,57.28061118881999L1196.4666666666667,57.73289382607936L1205.1999999999998,57.600147168020385L1213.9333333333334,53.74599204074144L1222.6666666666667,49.72081624037503L1231.4,46.618438688316814L1240.1333333333334,44.43262131221661L1248.8666666666666,42.75275220398646L1257.6,41.6101225946004L1266.3333333333333,40.80358441997771L1275.0666666666666,40.2399361196546L1283.8000000000002,39.72855680583427L1292.5333333333333,39.46571705524684L1301.2666666666667,39.36299595379296L1310,39.232632808565086L1318.7333333333333,38.94548702995718L1327.4666666666667,38.94638989641891L1336.1999999999998,38.89470169166054L1344.9333333333334,38.88843141545624L1353.6666666666667,38.945149454229295L1362.4,38.75650465056492L1371.1333333333334,38.79726291093891L1379.8666666666666,38.88495089592192L1388.6,38.94580577384244L1397.3333333333333,38.910843584905365L1406.0666666666666,38.99983176934035L1414.8000000000002,39.154939897938505L1423.5333333333333,39.289239788538964L1432.2666666666667,39.40831010500705L1441,39.29006140154132L1449.7333333333333,39.480278188497834L1458.4666666666667,39.5119382337885L1467.1999999999998,39.41271848330564L1475.9333333333334,39.56486734875028L1484.6666666666667,39.76886679714801L1493.4,39.959996950542234L1502.1333333333334,40.038937484734106L1510.8666666666666,40.06155915859836L1519.6,40.077884987180084L1528.3333333333333,40.013452544376605L1537.0666666666666,40.03252045892691L1545.8000000000002,40.002726194215484L1554.5333333333333,40.10031258878274L1563.2666666666667,39.15269896441629L1572,38.15801653406476L1580.7333333333333,37.51447460681527L1589.4666666666667,36.99914695454379L1598.1999999999998,36.67894725905779L1606.9333333333334,36.39060967942595L1615.6666666666667,36.1323842805005L1624.4,36.00768914339295L1633.1333333333334,35.960367532042426L1641.8666666666666,35.885242096193565L1650.6,35.771436350328656L1659.3333333333333,35.65366760950809L1668.0666666666666,35.64348656951125L1676.8000000000002,35.565902829823756L1685.5333333333333,35.516599761748125L1694.2666666666667,35.56674331645223L1703,35.47586904028361L1711.7333333333333,35.41859984324867L1720.4666666666667,35.39797786755531L1729.1999999999998,35.36087022841781L1737.9333333333334,35.39358020090452L1746.6666666666667,35.418711832922895L1755.4,35.38155269456905L1764.1333333333334,35.337267389169085L1772.8666666666666,35.343680939510705L1781.6,35.32278642306477L1790.3333333333333,35.35423755090193L1799.0666666666666,35.38960059439506L1807.8000000000002,35.383331142506336L1816.5333333333333,35.305341531420595L1825.2666666666667,35.26679804462918L1834,35.24367195255428L1842.7333333333333,35.29302113313872L1851.4666666666667,35.27315354111704L1860.1999999999998,35.21999797246241L1868.9333333333334,35.248576642835815L1877.6666666666667,35.18325381817664L1886.4,35.19629004801658L1895.1333333333334,35.190372243392915L1903.8666666666666,35.17857128075872L1912.6,35.25396073006135" style="fill: none;" fill="none"></path></g></g></g></g><g opacity="0.2"><g><g><g><path stroke="rgb(0, 119, 187)" stroke-width="2px" d="M174.66666666666666,326.935637338595L183.39999999999998,285.4930918758566L192.13333333333333,299.23854355378586L200.86666666666667,270.47617949138987L209.60000000000002,171.2683666185899L218.33333333333334,178.82837169820615L227.06666666666666,164.46436409516772L235.8,155.8390938585455L244.53333333333333,148.21037058396777L253.26666666666668,133.57144923643634L262,154.8769162351435L270.73333333333335,135.70200003277174L279.46666666666664,135.0147361538627L288.20000000000005,134.29308245398784L296.93333333333334,125.80526908961212L305.6666666666667,123.15928062525666L314.4,107.62689984928483L323.1333333333333,130.27254574949094L331.8666666666667,134.6023655371233L340.6,124.91180966117167L349.3333333333333,111.95671963691717L358.06666666666666,156.76690214330503L366.79999999999995,115.73673241788691L375.53333333333336,122.43762692538178L384.26666666666665,161.19980946454135L393,116.87073625217789L401.73333333333335,128.4169086976485L410.46666666666664,130.68491636623037L419.20000000000005,115.97727682373744L427.93333333333334,104.87782385132533L436.6666666666667,121.81908124143428L445.4,134.4305393262343L454.1333333333333,150.82201019200411L462.8666666666667,118.82946083762431L471.6,98.52054080096161L480.3333333333333,109.27636183391922L489.06666666666666,122.33453939177775L497.79999999999995,132.36872720718384L506.53333333333336,108.6921854886142L515.2666666666667,118.4858084158464L524,132.02509526772937L532.7333333333333,112.26600272005254L541.4666666666667,125.35854961655357L550.2,146.21727665987885L558.9333333333333,134.49927800351927L567.6666666666666,103.09090499444443L576.4000000000001,108.93272989446467L585.1333333333333,154.2240012125536L593.8666666666667,128.51999623125252L602.5999999999999,114.08727043325251L611.3333333333334,113.5718122829091L620.0666666666667,122.64382247491321L628.8,120.51327167857778L637.5333333333333,105.4620001966303L646.2666666666667,128.3138211640445L655,109.79181998426264L663.7333333333333,132.47181474078786L672.4666666666667,110.16982126235968L681.2,101.09781107035553L689.9333333333333,82.02600288391119L698.6666666666666,81.13254345547074L707.4000000000001,75.80617670579392L716.1333333333333,76.69963613423437L724.8666666666667,83.70981372486466L733.5999999999999,79.17381887002426L742.3333333333334,85.2905370322141L751.0666666666667,77.28381247953934L759.8,93.19417405128485L768.5333333333333,78.00544569709086L777.2666666666667,80.72017283873123L786,90.10144563154739L794.7333333333333,83.40055112405258L803.4666666666667,80.82328085465866L812.2,81.7167198007757L820.9333333333333,90.2389025037939L829.6666666666666,86.18399646065455L838.4000000000001,81.37308786132121L847.1333333333333,83.19435557452118L855.8666666666667,78.65836071968084L864.5999999999999,84.43144694241613L873.3333333333334,84.39709808609706L882.0666666666667,91.37290633808487L890.8,86.08090892705053L899.5333333333333,88.9330929409374L908.2666666666667,80.82328085465866L917,80.68582398241216L925.7333333333333,82.71326676282018L934.4666666666667,79.62053834308279L943.2,79.37999393723231L951.9333333333333,95.15291911905462L960.6666666666666,77.55872622403234L969.4000000000001,90.8574481877414L978.1333333333333,81.30436966635966L986.8666666666667,83.43489998037165L995.5999999999999,84.84381755915558L1004.3333333333334,77.52435688538986L1013.0666666666667,80.92636838826269L1021.8,79.65490768172526L1030.5333333333333,78.89890512553131L1039.2666666666667,77.52435688538986L1048,82.06037222255361L1056.7333333333333,77.83363996852529L1065.4666666666667,84.70636068690908L1074.1999999999998,86.21836579929703L1082.9333333333334,80.65145464376968L1091.6666666666667,80.10162715478378L1100.4,84.3283594088121L1109.1333333333334,93.36600026217377L1117.8666666666666,87.283630956303L1126.6,88.55509166284043L1135.3333333333333,78.96764380281621L1144.0666666666666,78.55527318607682L1152.8000000000002,83.67544438622218L1161.5333333333333,99.10471714626664L1170.2666666666667,78.14290256933731L1179,79.20818820866674L1187.7333333333333,85.94345205480403L1196.4666666666667,79.72364635901016L1205.1999999999998,88.3145472569899L1213.9333333333334,67.3183633414182L1222.6666666666667,65.56581382317978L1231.4,65.49709562821823L1240.1333333333334,64.50054866617376L1248.8666666666666,64.08817804943436L1257.6,65.25655122236776L1266.3333333333333,64.22563492168081L1275.0666666666666,63.91637232086879L1283.8000000000002,64.32872245528483L1292.5333333333333,65.01600681651723L1301.2666666666667,65.22218188372528L1310,67.8681908304041L1318.7333333333333,66.3561857180162L1327.4666666666667,67.69636461951518L1336.1999999999998,65.1878125450828L1344.9333333333334,65.42835695093328L1353.6666666666667,65.56581382317978L1362.4,68.55545470931315L1371.1333333333334,65.97818443991923L1379.8666666666666,68.58982404795563L1388.6,67.07781893556768L1397.3333333333333,65.49709562821823L1406.0666666666666,65.49709562821823L1414.8000000000002,66.08127197352326L1423.5333333333333,69.55200167135763L1432.2666666666667,67.00910074060613L1441,68.21182276985866L1449.7333333333333,67.21527580781418L1458.4666666666667,68.52108537067068L1467.1999999999998,69.41454479911113L1475.9333333333334,67.97127836400813L1484.6666666666667,72.06055374578995L1493.4,67.83382149176168L1502.1333333333334,68.58982404795563L1510.8666666666666,71.99181506850505L1519.6,71.88872753490102L1528.3333333333333,67.7994521531192L1537.0666666666666,74.5347364815799L1545.8000000000002,65.32526941732931L1554.5333333333333,69.2427185882222L1563.2666666666667,63.95072117718786L1572,63.84763364358383L1580.7333333333333,63.67582791501826L1589.4666666666667,62.98854355378586L1598.1999999999998,62.71362980929291L1606.9333333333334,63.297826636921286L1615.6666666666667,63.02291289242834L1624.4,63.19471862099391L1633.1333333333334,62.09508412534541L1641.8666666666666,62.30127967487687L1650.6,63.02291289242834L1659.3333333333333,62.369997869838414L1668.0666666666666,62.26691033623439L1676.8000000000002,62.50745474208486L1685.5333333333333,61.888909058137415L1694.2666666666667,61.37345090779394L1703,62.129453463987886L1711.7333333333333,61.75145218589091L1720.4666666666667,61.44218958507889L1729.1999999999998,62.198171658949434L1737.9333333333334,61.888909058137415L1746.6666666666667,61.13290650194341L1755.4,61.44218958507889L1764.1333333333334,61.85453971949494L1772.8666666666666,61.16727584058589L1781.6,61.99199659174138L1790.3333333333333,61.923278396779835L1799.0666666666666,61.37345090779394L1807.8000000000002,61.75145218589091L1816.5333333333333,61.16727584058589L1825.2666666666667,61.57964645732534L1834,61.51090778004044L1842.7333333333333,61.75145218589091L1851.4666666666667,61.888909058137415L1860.1999999999998,61.54527711868292L1868.9333333333334,62.610542275688886L1877.6666666666667,62.85108668153936L1886.4,61.27036337418991L1895.1333333333334,61.57964645732534L1903.8666666666666,61.75145218589091L1912.6,62.33562853119594" style="fill: none;" fill="none"></path></g><g><path stroke="rgb(255, 112, 67)" stroke-width="2px" d="M174.66666666666666,335.2241448949684L183.39999999999998,292.55825426361775L192.13333333333333,261.383564082059L200.86666666666667,225.79658203775233L209.60000000000002,190.14774337681857L218.33333333333334,160.5056635249745L227.06666666666666,139.79127541455355L235.8,130.0388629219749L244.53333333333333,122.23145185817373L253.26666666666668,118.10782762007278L262,114.20410160584885L270.73333333333335,111.95671963691717L279.46666666666664,109.530649878762L288.20000000000005,108.87775533849543L296.93333333333334,107.70938216556203L305.6666666666667,104.55479712919754L314.4,104.0874519564889L323.1333333333333,103.41393171657216L331.8666666666667,102.0256398374384L340.6,100.95349261977458L349.3333333333333,100.71980979225856L358.06666666666666,100.45177810842341L366.79999999999995,100.03254591334951L375.53333333333336,99.90883268009537L384.26666666666665,98.70611065084285L393,99.01537325165492L401.73333333333335,97.97759537263352L410.46666666666664,98.62362833456558L419.20000000000005,97.40716266632086L427.93333333333334,96.78175540403885L436.6666666666667,97.17350032112819L445.4,96.31441023133021L454.1333333333333,95.73709546435964L462.8666666666667,95.97075780955231L471.6,96.11509674245661L480.3333333333333,94.97421084750783L489.06666666666666,95.6752388477326L497.79999999999995,95.26975029165095L506.53333333333336,95.55152561447841L515.2666666666667,94.89174901355398L524,94.60309163006872L532.7333333333333,95.51029469750148L541.4666666666667,94.34192152456802L550.2,93.90206362984401L558.9333333333333,94.56186071309179L567.6666666666666,94.35566516356033L576.4000000000001,94.54811707409948L585.1333333333333,93.78523245724767L593.8666666666667,93.90206362984401L602.5999999999999,94.07388984073293L611.3333333333334,93.53094441240484L620.0666666666667,93.35225662318146L628.8,92.88491145047277L637.5333333333333,92.89865508946508L646.2666666666667,92.7886854952032L655,92.79556755586106L663.7333333333333,92.17013981125575L672.4666666666667,93.33851298418915L681.2,92.33508396148687L689.9333333333333,73.73062094775116L698.6666666666666,66.85790022936737L707.4000000000001,64.54177958315069L716.1333333333333,63.71017677133733L724.8666666666667,63.03665653142065L733.5999999999999,63.290944576263485L742.3333333333334,63.11225678704005L751.0666666666667,63.25657523762101L759.8,62.6998861703006L768.5333333333333,63.235970020294246L777.2666666666667,62.50057268142706L786,61.937022035772145L794.7333333333333,61.13978856260127L803.4666666666667,61.83393450216818L812.2,61.57276439666754L820.9333333333333,61.4559332240712L829.6666666666666,60.4181553450498L838.4000000000001,60.693048607219396L847.1333333333333,61.41468182477087L855.8666666666667,60.225703434510706L864.5999999999999,60.672443389892635L873.3333333333334,59.96455381133342L882.0666666666667,60.58996107361537L890.8,59.83395851742142L899.5333333333333,60.239447073503015L908.2666666666667,59.737753044475255L917,59.84084057807928L925.7333333333333,59.22915647246623L934.4666666666667,58.78243699940771L943.2,59.291013089093326L951.9333333333333,59.1879255554893L960.6666666666666,59.022981405258236L969.4000000000001,57.882115992632805L978.1333333333333,58.52126689390707L986.8666666666667,58.67934946580368L995.5999999999999,58.19137859344488L1004.3333333333334,58.102034698833165L1013.0666666666667,58.52126689390707L1021.8,58.66560582681137L1030.5333333333333,58.79618063840002L1039.2666666666667,58.102034698833165L1048,58.074547420848546L1056.7333333333333,58.143265615810094L1065.4666666666667,57.49037107554352L1074.1999999999998,58.05392172119838L1082.9333333333334,57.902721209959566L1091.6666666666667,59.057350743900656L1100.4,58.19826065410268L1109.1333333333334,57.634689526124475L1117.8666666666666,57.05051318081945L1126.6,57.61406382647431L1135.3333333333333,58.2876045487144L1144.0666666666666,57.50411471453583L1152.8000000000002,57.208575270392714L1161.5333333333333,58.19137859344488L1170.2666666666667,57.56597133116293L1179,57.456001736901044L1187.7333333333333,56.79622513597661L1196.4666666666667,58.41131778196859L1205.1999999999998,57.401027180931806L1213.9333333333334,47.964759349823055L1222.6666666666667,43.683052539825496L1231.4,41.96487236022955L1240.1333333333334,41.153895248066306L1248.8666666666666,40.23294854164129L1257.6,39.89617818052119L1266.3333333333333,39.59377715804362L1275.0666666666666,39.39446366917008L1283.8000000000002,38.96148783510381L1292.5333333333333,39.071457429365694L1301.2666666666667,39.2089143016122L1310,39.037088090723216L1318.7333333333333,38.514768362045345L1327.4666666666667,38.9477441961115L1336.1999999999998,38.81716938452291L1344.9333333333334,38.87902600114995L1353.6666666666667,39.030226512388765L1362.4,38.473537445068416L1371.1333333333334,38.85840030149984L1379.8666666666666,39.016482873396455L1388.6,39.037088090723216L1397.3333333333333,38.85840030149984L1406.0666666666666,39.13331404599279L1414.8000000000002,39.38760209083563L1423.5333333333333,39.4906896244396L1432.2666666666667,39.58691557970917L1441,39.11268834634262L1449.7333333333333,39.765603368932545L1458.4666666666667,39.55942830172455L1467.1999999999998,39.263888857581435L1475.9333333333334,39.793090646917165L1484.6666666666667,40.07486596974462L1493.4,40.2466921806336L1502.1333333333334,40.157348286021886L1510.8666666666666,40.09549166939479L1519.6,40.10237373005265L1528.3333333333333,39.91680388017136L1537.0666666666666,40.06112233075231L1545.8000000000002,39.95803479714829L1554.5333333333333,40.2466921806336L1563.2666666666667,37.73127852786672L1572,36.665992888537346L1580.7333333333333,36.54916171594101L1589.4666666666667,36.22615547613668L1598.1999999999998,36.198647715828656L1606.9333333333334,35.958103309978185L1615.6666666666667,35.745046182112276L1624.4,35.82064643773168L1633.1333333333334,35.88938511501664L1641.8666666666666,35.7725539424203L1650.6,35.60072773153132L1659.3333333333333,35.477014498277185L1668.0666666666666,35.62821500951594L1676.8000000000002,35.449527220292566L1685.5333333333333,35.44264515963471L1694.2666666666667,35.64195864850825L1703,35.33955762603068L1711.7333333333333,35.33269604769623L1720.4666666666667,35.3670449040153L1729.1999999999998,35.30520876971161L1737.9333333333334,35.44264515963471L1746.6666666666667,35.45640928095037L1755.4,35.32581398703837L1764.1333333333334,35.270839431069135L1772.8666666666666,35.35330126502299L1781.6,35.291444648395895L1790.3333333333333,35.40141424265778L1799.0666666666666,35.44264515963471L1807.8000000000002,35.37392696467316L1816.5333333333333,35.18835711479193L1825.2666666666667,35.20898281444204L1834,35.20898281444204L1842.7333333333333,35.3670449040153L1851.4666666666667,35.243352153084516L1860.1999999999998,35.14026461948049L1868.9333333333334,35.291444648395895L1877.6666666666667,35.0852695811879L1886.4,35.215844392776546L1895.1333333333334,35.18149553645742L1903.8666666666666,35.16086983680731L1912.6,35.3670449040153" style="fill: none;" fill="none"></path></g></g></g></g></g></g><g transform="translate(40, 378)" clip-path="url(#clip_1)"><clipPath id="clip_1"><rect width="2096" height="22"></rect></clipPath><g><g><line x1="0" y1="0" x2="0" y2="5" style="visibility: inherit;" fill="rgb(0, 0, 0)" stroke="rgb(204, 204, 204)" stroke-width="1px"></line><line x1="174.66666666666666" y1="0" x2="174.66666666666666" y2="5" style="visibility: inherit;" fill="rgb(0, 0, 0)" stroke="rgb(204, 204, 204)" stroke-width="1px"></line><line x1="349.3333333333333" y1="0" x2="349.3333333333333" y2="5" style="visibility: inherit;" fill="rgb(0, 0, 0)" stroke="rgb(204, 204, 204)" stroke-width="1px"></line><line x1="524" y1="0" x2="524" y2="5" style="visibility: inherit;" fill="rgb(0, 0, 0)" stroke="rgb(204, 204, 204)" stroke-width="1px"></line><line x1="698.6666666666666" y1="0" x2="698.6666666666666" y2="5" style="visibility: inherit;" fill="rgb(0, 0, 0)" stroke="rgb(204, 204, 204)" stroke-width="1px"></line><line x1="873.3333333333334" y1="0" x2="873.3333333333334" y2="5" style="visibility: inherit;" fill="rgb(0, 0, 0)" stroke="rgb(204, 204, 204)" stroke-width="1px"></line><line x1="1048" y1="0" x2="1048" y2="5" style="visibility: inherit;" fill="rgb(0, 0, 0)" stroke="rgb(204, 204, 204)" stroke-width="1px"></line><line x1="1222.6666666666667" y1="0" x2="1222.6666666666667" y2="5" style="visibility: inherit;" fill="rgb(0, 0, 0)" stroke="rgb(204, 204, 204)" stroke-width="1px"></line><line x1="1397.3333333333333" y1="0" x2="1397.3333333333333" y2="5" style="visibility: inherit;" fill="rgb(0, 0, 0)" stroke="rgb(204, 204, 204)" stroke-width="1px"></line><line x1="1572" y1="0" x2="1572" y2="5" style="visibility: inherit;" fill="rgb(0, 0, 0)" stroke="rgb(204, 204, 204)" stroke-width="1px"></line><line x1="1746.6666666666667" y1="0" x2="1746.6666666666667" y2="5" style="visibility: inherit;" fill="rgb(0, 0, 0)" stroke="rgb(204, 204, 204)" stroke-width="1px"></line><line x1="1921.3333333333333" y1="0" x2="1921.3333333333333" y2="5" style="visibility: inherit;" fill="rgb(0, 0, 0)" stroke="rgb(204, 204, 204)" stroke-width="1px"></line><line x1="2096" y1="0" x2="2096" y2="5" style="visibility: inherit;" fill="rgb(0, 0, 0)" stroke="rgb(204, 204, 204)" stroke-width="1px"></line></g><g transform="translate(0, 8)"><text x="0" y="0" dx="0em" dy="0.95em" style="text-anchor: middle; visibility: hidden; font-family: &quot;Helvetica Neue&quot;, sans-serif; font-size: 12px; font-weight: 200;" fill="rgb(50, 49, 63)" stroke="none" stroke-width="1px">-20</text><text x="174.66666666666666" y="0" dx="0em" dy="0.95em" style="text-anchor: middle; visibility: inherit; font-family: &quot;Helvetica Neue&quot;, sans-serif; font-size: 12px; font-weight: 200;" fill="rgb(50, 49, 63)" stroke="none" stroke-width="1px">0</text><text x="349.3333333333333" y="0" dx="0em" dy="0.95em" style="text-anchor: middle; visibility: inherit; font-family: &quot;Helvetica Neue&quot;, sans-serif; font-size: 12px; font-weight: 200;" fill="rgb(50, 49, 63)" stroke="none" stroke-width="1px">20</text><text x="524" y="0" dx="0em" dy="0.95em" style="text-anchor: middle; visibility: inherit; font-family: &quot;Helvetica Neue&quot;, sans-serif; font-size: 12px; font-weight: 200;" fill="rgb(50, 49, 63)" stroke="none" stroke-width="1px">40</text><text x="698.6666666666666" y="0" dx="0em" dy="0.95em" style="text-anchor: middle; visibility: inherit; font-family: &quot;Helvetica Neue&quot;, sans-serif; font-size: 12px; font-weight: 200;" fill="rgb(50, 49, 63)" stroke="none" stroke-width="1px">60</text><text x="873.3333333333334" y="0" dx="0em" dy="0.95em" style="text-anchor: middle; visibility: inherit; font-family: &quot;Helvetica Neue&quot;, sans-serif; font-size: 12px; font-weight: 200;" fill="rgb(50, 49, 63)" stroke="none" stroke-width="1px">80</text><text x="1048" y="0" dx="0em" dy="0.95em" style="text-anchor: middle; visibility: inherit; font-family: &quot;Helvetica Neue&quot;, sans-serif; font-size: 12px; font-weight: 200;" fill="rgb(50, 49, 63)" stroke="none" stroke-width="1px">100</text><text x="1222.6666666666667" y="0" dx="0em" dy="0.95em" style="text-anchor: middle; visibility: inherit; font-family: &quot;Helvetica Neue&quot;, sans-serif; font-size: 12px; font-weight: 200;" fill="rgb(50, 49, 63)" stroke="none" stroke-width="1px">120</text><text x="1397.3333333333333" y="0" dx="0em" dy="0.95em" style="text-anchor: middle; visibility: inherit; font-family: &quot;Helvetica Neue&quot;, sans-serif; font-size: 12px; font-weight: 200;" fill="rgb(50, 49, 63)" stroke="none" stroke-width="1px">140</text><text x="1572" y="0" dx="0em" dy="0.95em" style="text-anchor: middle; visibility: inherit; font-family: &quot;Helvetica Neue&quot;, sans-serif; font-size: 12px; font-weight: 200;" fill="rgb(50, 49, 63)" stroke="none" stroke-width="1px">160</text><text x="1746.6666666666667" y="0" dx="0em" dy="0.95em" style="text-anchor: middle; visibility: inherit; font-family: &quot;Helvetica Neue&quot;, sans-serif; font-size: 12px; font-weight: 200;" fill="rgb(50, 49, 63)" stroke="none" stroke-width="1px">180</text><text x="1921.3333333333333" y="0" dx="0em" dy="0.95em" style="text-anchor: middle; visibility: inherit; font-family: &quot;Helvetica Neue&quot;, sans-serif; font-size: 12px; font-weight: 200;" fill="rgb(50, 49, 63)" stroke="none" stroke-width="1px">200</text><text x="2096" y="0" dx="0em" dy="0.95em" style="text-anchor: middle; visibility: hidden; font-family: &quot;Helvetica Neue&quot;, sans-serif; font-size: 12px; font-weight: 200;" fill="rgb(50, 49, 63)" stroke="none" stroke-width="1px">220</text></g><line x1="0" y1="0" x2="2096" y2="0" fill="rgb(0, 0, 0)" stroke="rgb(204, 204, 204)" stroke-width="1px"></line></g></g></g></g></svg>